<svg xmlns="http://www.w3.org/2000/svg" width="32" height="32" fill="none" viewBox="0 0 32 32">
  <path fill="#fff" d="M5.333 24c-.377 0-.694-.128-.949-.384a1.296 1.296 0 0 1-.384-.95c0-.376.127-.693.384-.949s.573-.384.95-.384h21.333c.377 0 .694.128.95.384s.384.573.383.95a1.3 1.3 0 0 1-.384.95 1.275 1.275 0 0 1-.95.383H5.334Zm0-6.667c-.377 0-.694-.128-.949-.384A1.296 1.296 0 0 1 4 16c0-.377.127-.693.384-.95.257-.255.573-.383.95-.383h21.333c.377 0 .694.128.95.384s.384.572.383.949c0 .377-.129.694-.384.95a1.275 1.275 0 0 1-.95.383H5.334Zm0-6.666c-.377 0-.694-.128-.949-.384A1.297 1.297 0 0 1 4 9.333c0-.377.127-.693.384-.949S4.957 8 5.334 8h21.333c.377 0 .694.128.95.384s.384.572.383.95c0 .376-.129.693-.384.95a1.276 1.276 0 0 1-.95.383H5.334Z"/>
</svg>
